<svg xmlns="http://www.w3.org/2000/svg" width="24" height="24" viewBox="0 0 24 24" fill="none"><path fill-rule="evenodd" clip-rule="evenodd" d="M8 3C5.23858 3 3 5.23858 3 8V16C3 18.7614 5.23858 21 8 21H16C18.7614 21 21 18.7614 21 16V8C21 5.23858 18.7614 3 16 3H8ZM13.9732 5.89866C14.1639 5.72157 14.1639 5.43443 13.9732 5.25734C13.7825 5.08024 13.4733 5.08024 13.2825 5.25734C11.5748 6.84314 10.7732 9.04478 11.1903 11.0358C9.1231 10.5824 6.7993 11.2775 5.14301 12.8155C4.95229 12.9926 4.95229 13.2797 5.14301 13.4568C5.33373 13.6339 5.64295 13.6339 5.83367 13.4568C6.10504 13.2048 6.39489 12.9804 6.69788 12.7845L8.72441 14.6663C8.91513 14.8434 9.22435 14.8434 9.41507 14.6663C9.60579 14.4892 9.60579 14.202 9.41507 14.0249L7.57155 12.3131C7.84914 12.1907 8.1328 12.09 8.41912 12.0116L11.5525 14.9211C11.5626 14.9305 11.573 14.9394 11.5837 14.9477C11.5042 15.1982 11.4035 15.4465 11.282 15.6899L10.5902 15.0475C10.3995 14.8704 10.0903 14.8704 9.89955 15.0475C9.70883 15.2246 9.70883 15.5117 9.89955 15.6888L10.781 16.5073C10.5629 16.8033 10.3111 17.0863 10.0267 17.3504C9.83601 17.5275 9.83601 17.8146 10.0267 17.9917C10.2175 18.1688 10.5267 18.1688 10.7174 17.9917C12.3737 16.4537 13.1223 14.2959 12.6339 12.3764C14.7781 12.7636 17.1491 12.0193 18.8569 10.4335C19.0476 10.2564 19.0476 9.96932 18.8569 9.79222C18.6662 9.61512 18.357 9.61512 18.1663 9.79222C17.8827 10.0555 17.5803 10.291 17.2643 10.4975L15.1312 8.51678C14.9405 8.33968 14.6312 8.33968 14.4405 8.51678C14.2498 8.69388 14.2498 8.98101 14.4405 9.15811L16.3991 10.9768C16.1417 11.0956 15.879 11.197 15.6134 11.2806C15.5954 11.2553 15.5745 11.2313 15.5505 11.209L12.374 8.25938C12.469 8.00055 12.5852 7.74471 12.722 7.49439L13.3391 8.0675C13.5299 8.24459 13.8391 8.24459 14.0298 8.0675C14.2205 7.8904 14.2205 7.60327 14.0298 7.42617L13.244 6.69648C13.4591 6.41744 13.7024 6.15008 13.9732 5.89866ZM12.1091 9.29606L14.5075 11.5232C13.7461 11.6189 12.9876 11.5672 12.2858 11.3591C12.0616 10.7074 12.0061 10.0031 12.1091 9.29606ZM11.7933 13.8621C11.8328 13.2898 11.7584 12.7259 11.5639 12.2013L11.5165 12.0735L11.3788 12.0295C10.8139 11.8489 10.2065 11.7797 9.59029 11.8164L11.7933 13.8621Z" fill="#222222"></path></svg>