<svg xmlns="http://www.w3.org/2000/svg" width="24" height="24" viewBox="0 0 24 24" fill="none"><path d="M8.2628 3.37772C8.44565 3.06841 8.84463 2.9659 9.15394 3.14875L9.87544 3.57528L17.897 8.17908C18.2086 8.35794 18.3163 8.75557 18.1374 9.0672C17.9585 9.37884 17.5609 9.48648 17.2493 9.30762L16.5174 8.88759L15.2121 11.1407L15.2105 11.1398L12.9915 9.86308C12.68 9.68389 12.2823 9.7911 12.1031 10.1025C11.9239 10.414 12.0311 10.8117 12.3426 10.9909L14.5598 12.2666L13.7258 13.7062L13.7242 13.7053L10.0783 11.6076C9.76681 11.4284 9.36907 11.5356 9.18988 11.8471C9.01069 12.1585 9.1179 12.5562 9.42934 12.7354L13.0735 14.8321L12.3052 16.1582L12.3036 16.1572L10.0372 14.8532C9.72578 14.674 9.32804 14.7813 9.14885 15.0927C8.96966 15.4041 9.07687 15.8019 9.38831 15.9811L11.6529 17.2841L10.682 18.96C9.51961 20.9663 6.94516 21.6538 4.93183 20.4954C2.91849 19.337 2.22867 16.7714 3.39107 14.7651L9.22196 4.7005L9.21688 4.69752L8.49177 4.26886C8.18246 4.08601 8.07995 3.68703 8.2628 3.37772Z" fill="#222222"></path><path d="M18.4408 16.7206C19.399 16.7206 20.1757 15.9115 20.1757 14.9134C20.1757 14.2889 19.4965 13.4554 18.9881 12.9189C18.6871 12.6013 18.1945 12.6013 17.8935 12.9189C17.3851 13.4554 16.7059 14.2889 16.7059 14.9134C16.7059 15.9115 17.4826 16.7206 18.4408 16.7206Z" fill="#222222"></path></svg>