<svg xmlns="http://www.w3.org/2000/svg" width="24" height="24" viewBox="0 0 24 24" fill="none"><path fill-rule="evenodd" clip-rule="evenodd" d="M8 3C5.23858 3 3 5.23858 3 8V16C3 18.7614 5.23858 21 8 21H16C18.7614 21 21 18.7614 21 16V8C21 5.23858 18.7614 3 16 3H8ZM14.3917 7.51184L16.9781 17.1722C17.0226 17.3433 16.9929 17.5239 16.8953 17.6746C16.7978 17.8252 16.6404 17.9338 16.4574 17.9766C16.2745 18.0194 16.0808 17.9929 15.9187 17.9029C15.7566 17.813 15.6392 17.6668 15.592 17.4963L14.6561 13.9997H9.34049L8.40454 17.4963C8.35741 17.6668 8.23997 17.813 8.07786 17.9029C7.91574 17.9929 7.72209 18.0194 7.53914 17.9766C7.35619 17.9338 7.19878 17.8252 7.10125 17.6746C7.00371 17.5239 6.97396 17.3433 7.01849 17.1722L9.60484 7.51184C9.72036 7.07882 9.98784 6.69437 10.3646 6.41976C10.7414 6.14514 11.2059 5.99617 11.6839 5.99659H12.3105C12.7889 5.99572 13.2539 6.14449 13.6311 6.41914C14.0083 6.69379 14.2761 7.07849 14.3917 7.51184ZM10.9916 7.83596L9.69772 12.6658H14.2981L13.005 7.83596C12.9664 7.69162 12.8772 7.56345 12.7517 7.47185C12.6261 7.38025 12.4713 7.33047 12.3119 7.33043H11.6846C11.5253 7.33047 11.3705 7.38025 11.2449 7.47185C11.1193 7.56345 11.0302 7.69162 10.9916 7.83596Z" fill="#222222"></path></svg>