<svg xmlns="http://www.w3.org/2000/svg" width="24" height="24" viewBox="0 0 24 24" fill="none"><path d="M11.9988 2.96484L20.9988 6.82199V8.1077H19.7988C19.7988 8.28181 19.7347 8.43248 19.6066 8.55971C19.4785 8.68694 19.3269 8.75056 19.1519 8.75056H4.84565C4.67065 8.75056 4.51909 8.68694 4.39097 8.55971C4.26284 8.43248 4.19878 8.28181 4.19878 8.1077H2.99878V6.82199L11.9988 2.96484ZM5.39878 9.39342H7.79878V17.1077H8.99878V9.39342H11.3988V17.1077H12.5988V9.39342H14.9988V17.1077H16.1988V9.39342H18.5988V17.1077H19.1519C19.3269 17.1077 19.4785 17.1713 19.6066 17.2985C19.7347 17.4258 19.7988 17.5765 19.7988 17.7506V18.3934H4.19878V17.7506C4.19878 17.5765 4.26284 17.4258 4.39097 17.2985C4.51909 17.1713 4.67065 17.1077 4.84565 17.1077H5.39878V9.39342ZM20.3519 19.0363C20.5269 19.0363 20.6785 19.0999 20.8066 19.2271C20.9347 19.3544 20.9988 19.505 20.9988 19.6791V20.9648H2.99878V19.6791C2.99878 19.505 3.06284 19.3544 3.19097 19.2271C3.31909 19.0999 3.47065 19.0363 3.64565 19.0363H20.3519Z" fill="#222222"></path></svg>