<svg xmlns="http://www.w3.org/2000/svg" width="24" height="24" viewBox="0 0 24 24" fill="none"><path fill-rule="evenodd" clip-rule="evenodd" d="M8 3C5.23858 3 3 5.23858 3 8V16C3 18.7614 5.23858 21 8 21H16C18.7614 21 21 18.7614 21 16V8C21 5.23858 18.7614 3 16 3H8ZM9 5.5C8.72386 5.5 8.5 5.72386 8.5 6C8.5 6.27614 8.72386 6.5 9 6.5H9.6C9.87614 6.5 10.1 6.27614 10.1 6C10.1 5.72386 9.87614 5.5 9.6 5.5H9ZM6 7.3H11.9932H12.0078H13.2C13.4761 7.3 13.7 7.52386 13.7 7.8C13.7 8.07614 13.4761 8.3 13.2 8.3H12.2676L11.216 9.87735C11.1978 9.90475 11.1768 9.93027 11.1536 9.95355L10.0071 11.1L11.7536 12.8464C11.9488 13.0417 11.9488 13.3583 11.7536 13.5536C11.5583 13.7488 11.2417 13.7488 11.0464 13.5536L9.3 11.8071L7.55355 13.5536C7.35829 13.7488 7.04171 13.7488 6.84645 13.5536C6.65118 13.3583 6.65118 13.0417 6.84645 12.8464L8.59289 11.1L7.44645 9.95355C7.25118 9.75829 7.25118 9.44171 7.44645 9.24645C7.64171 9.05118 7.95829 9.05118 8.15355 9.24645L9.3 10.3929L10.4114 9.28146L11.0657 8.3H6C5.72386 8.3 5.5 8.07614 5.5 7.8C5.5 7.52386 5.72386 7.3 6 7.3ZM15.4472 11.7764C15.3625 11.607 15.1894 11.5 15 11.5C14.8106 11.5 14.6375 11.607 14.5528 11.7764L12.7573 15.3674C12.754 15.3735 12.7509 15.3798 12.7479 15.3861L11.5528 17.7764C11.4293 18.0234 11.5294 18.3237 11.7764 18.4472C12.0234 18.5707 12.3237 18.4706 12.4472 18.2236L13.509 16.1H16.491L17.5528 18.2236C17.6763 18.4706 17.9766 18.5707 18.2236 18.4472C18.4706 18.3237 18.5707 18.0234 18.4472 17.7764L17.2521 15.3861C17.2491 15.3798 17.246 15.3736 17.2427 15.3674L15.4472 11.7764ZM15 13.118L15.991 15.1H14.009L15 13.118Z" fill="#222222"></path></svg>