<svg xmlns="http://www.w3.org/2000/svg" width="24" height="24" viewBox="0 0 24 24" fill="none"><path fill-rule="evenodd" clip-rule="evenodd" d="M12.0012 21.0581C7.75858 21.0581 5.63726 21.0581 4.31924 19.7401C3.00122 18.4221 3.00122 16.3007 3.00122 12.0581C3.00122 7.81546 3.00122 5.69414 4.31924 4.37612C5.63726 3.05811 7.75858 3.05811 12.0012 3.05811C16.2439 3.05811 18.3652 3.05811 19.6832 4.37612C21.0012 5.69414 21.0012 7.81546 21.0012 12.0581C21.0012 16.3007 21.0012 18.4221 19.6832 19.7401C18.3652 21.0581 16.2439 21.0581 12.0012 21.0581ZM9.07622 7.10808C9.07622 6.73529 8.77401 6.43308 8.40122 6.43308C8.02843 6.43308 7.72622 6.73529 7.72622 7.10808L7.72622 8.2331H6.60122C6.22843 8.2331 5.92622 8.53531 5.92622 8.9081C5.92622 9.28089 6.22843 9.5831 6.60122 9.5831L7.72622 9.5831V10.7081C7.72622 11.0809 8.02843 11.3831 8.40122 11.3831C8.77401 11.3831 9.07622 11.0809 9.07622 10.7081V9.5831H10.2012C10.574 9.5831 10.8762 9.28089 10.8762 8.9081C10.8762 8.53531 10.574 8.2331 10.2012 8.2331H9.07622L9.07622 7.10808ZM13.8012 8.23308C13.4284 8.23308 13.1262 8.53529 13.1262 8.90808C13.1262 9.28088 13.4284 9.58308 13.8012 9.58308H17.4012C17.774 9.58308 18.0762 9.28088 18.0762 8.90808C18.0762 8.53529 17.774 8.23308 17.4012 8.23308H13.8012ZM13.8012 13.6331C13.4284 13.6331 13.1262 13.9353 13.1262 14.3081C13.1262 14.6809 13.4284 14.9831 13.8012 14.9831H17.4012C17.774 14.9831 18.0762 14.6809 18.0762 14.3081C18.0762 13.9353 17.774 13.6331 17.4012 13.6331H13.8012ZM7.52852 13.8308C7.26491 13.5672 6.83753 13.5672 6.57392 13.8308C6.31032 14.0944 6.31032 14.5218 6.57392 14.7854L7.44663 15.6581L6.57393 16.5308C6.31033 16.7944 6.31033 17.2218 6.57394 17.4854C6.83754 17.749 7.26493 17.749 7.52853 17.4854L8.40123 16.6127L9.27391 17.4854C9.53752 17.749 9.9649 17.749 10.2285 17.4854C10.4921 17.2218 10.4921 16.7944 10.2285 16.5308L9.35582 15.6581L10.2285 14.7854C10.4921 14.5218 10.4921 14.0944 10.2285 13.8308C9.96491 13.5672 9.53753 13.5672 9.27392 13.8308L8.40123 14.7035L7.52852 13.8308ZM13.8012 16.3331C13.4284 16.3331 13.1262 16.6353 13.1262 17.0081C13.1262 17.3809 13.4284 17.6831 13.8012 17.6831H17.4012C17.774 17.6831 18.0762 17.3809 18.0762 17.0081C18.0762 16.6353 17.774 16.3331 17.4012 16.3331H13.8012Z" fill="#222222"></path></svg>