<svg width="24" height="25" viewBox="0 0 24 25" fill="none" xmlns="http://www.w3.org/2000/svg">
<path d="M16 4.59338C16 5.83338 14.99 6.84338 13.75 6.84338H10.25C9.63 6.84338 9.07 6.59338 8.66 6.18338C8.25 5.77338 8 5.21338 8 4.59338C8 3.35338 9.01 2.34338 10.25 2.34338H13.75C14.37 2.34338 14.93 2.59338 15.34 3.00338C15.75 3.41338 16 3.97338 16 4.59338Z" fill="#222222"/>
<path d="M18.83 5.3731C18.6 5.1831 18.34 5.0331 18.06 4.9231C17.77 4.8131 17.48 5.0431 17.42 5.3431C17.08 7.0531 15.57 8.3431 13.75 8.3431H10.25C9.25 8.3431 8.31 7.9531 7.6 7.2431C7.08 6.7231 6.72 6.0631 6.58 5.3531C6.52 5.0531 6.22 4.8131 5.93 4.9331C4.77 5.4031 4 6.4631 4 8.5931V18.3431C4 21.3431 5.79 22.3431 8 22.3431H16C18.21 22.3431 20 21.3431 20 18.3431V8.5931C20 6.9631 19.55 5.9631 18.83 5.3731ZM8 12.5931H12C12.41 12.5931 12.75 12.9331 12.75 13.3431C12.75 13.7531 12.41 14.0931 12 14.0931H8C7.59 14.0931 7.25 13.7531 7.25 13.3431C7.25 12.9331 7.59 12.5931 8 12.5931ZM16 18.0931H8C7.59 18.0931 7.25 17.7531 7.25 17.3431C7.25 16.9331 7.59 16.5931 8 16.5931H16C16.41 16.5931 16.75 16.9331 16.75 17.3431C16.75 17.7531 16.41 18.0931 16 18.0931Z" fill="#222222"/>
</svg>
