<svg width="18" height="18" viewBox="0 0 18 18" fill="none" xmlns="http://www.w3.org/2000/svg">
<path fill-rule="evenodd" clip-rule="evenodd" d="M17.3307 9.19869C17.3307 13.8011 13.5998 17.532 8.99739 17.532C4.39502 17.532 0.664062 13.8011 0.664062 9.19869C0.664062 4.59632 4.39502 0.865356 8.99739 0.865356C13.5998 0.865356 17.3307 4.59632 17.3307 9.19869ZM12.356 6.67341C12.6001 6.91749 12.6001 7.31322 12.356 7.5573L8.18934 11.724C7.94526 11.968 7.54953 11.968 7.30545 11.724L5.63879 10.0573C5.39471 9.81322 5.39471 9.41749 5.63879 9.17341C5.88286 8.92934 6.27859 8.92934 6.52267 9.17341L7.74739 10.3981L9.60976 8.53578L11.4721 6.67341C11.7162 6.42934 12.1119 6.42934 12.356 6.67341Z" fill="#0FA8A4"/>
</svg>
