<svg width="24" height="24" viewBox="0 0 24 24" fill="none" xmlns="http://www.w3.org/2000/svg">
<path d="M16.75 3.56684V2.00684C16.75 1.59684 16.41 1.25684 16 1.25684C15.59 1.25684 15.25 1.59684 15.25 2.00684V3.50684H8.74999V2.00684C8.74999 1.59684 8.40999 1.25684 7.99999 1.25684C7.58999 1.25684 7.24999 1.59684 7.24999 2.00684V3.56684C4.54999 3.81684 3.23999 5.42684 3.03999 7.81684C3.01999 8.10684 3.25999 8.34684 3.53999 8.34684H20.46C20.75 8.34684 20.99 8.09684 20.96 7.81684C20.76 5.42684 19.45 3.81684 16.75 3.56684Z" fill="#0FA8A4"/>
<path d="M20 9.84668H4C3.45 9.84668 3 10.2967 3 10.8467V17.0067C3 20.0067 4.5 22.0067 8 22.0067H16C19.5 22.0067 21 20.0067 21 17.0067V10.8467C21 10.2967 20.55 9.84668 20 9.84668ZM9.21 18.2167C9.16 18.2567 9.11 18.3067 9.06 18.3367C9 18.3767 8.94 18.4067 8.88 18.4267C8.82 18.4567 8.76 18.4767 8.7 18.4867C8.63 18.4967 8.57 18.5067 8.5 18.5067C8.37 18.5067 8.24 18.4767 8.12 18.4267C7.99 18.3767 7.89 18.3067 7.79 18.2167C7.61 18.0267 7.5 17.7667 7.5 17.5067C7.5 17.2467 7.61 16.9867 7.79 16.7967C7.89 16.7067 7.99 16.6367 8.12 16.5867C8.3 16.5067 8.5 16.4867 8.7 16.5267C8.76 16.5367 8.82 16.5567 8.88 16.5867C8.94 16.6067 9 16.6367 9.06 16.6767C9.11 16.7167 9.16 16.7567 9.21 16.7967C9.39 16.9867 9.5 17.2467 9.5 17.5067C9.5 17.7667 9.39 18.0267 9.21 18.2167ZM9.21 14.7167C9.02 14.8967 8.76 15.0067 8.5 15.0067C8.24 15.0067 7.98 14.8967 7.79 14.7167C7.61 14.5267 7.5 14.2667 7.5 14.0067C7.5 13.7467 7.61 13.4867 7.79 13.2967C8.07 13.0167 8.51 12.9267 8.88 13.0867C9.01 13.1367 9.12 13.2067 9.21 13.2967C9.39 13.4867 9.5 13.7467 9.5 14.0067C9.5 14.2667 9.39 14.5267 9.21 14.7167ZM12.71 18.2167C12.52 18.3967 12.26 18.5067 12 18.5067C11.74 18.5067 11.48 18.3967 11.29 18.2167C11.11 18.0267 11 17.7667 11 17.5067C11 17.2467 11.11 16.9867 11.29 16.7967C11.66 16.4267 12.34 16.4267 12.71 16.7967C12.89 16.9867 13 17.2467 13 17.5067C13 17.7667 12.89 18.0267 12.71 18.2167ZM12.71 14.7167C12.66 14.7567 12.61 14.7967 12.56 14.8367C12.5 14.8767 12.44 14.9067 12.38 14.9267C12.32 14.9567 12.26 14.9767 12.2 14.9867C12.13 14.9967 12.07 15.0067 12 15.0067C11.74 15.0067 11.48 14.8967 11.29 14.7167C11.11 14.5267 11 14.2667 11 14.0067C11 13.7467 11.11 13.4867 11.29 13.2967C11.38 13.2067 11.49 13.1367 11.62 13.0867C11.99 12.9267 12.43 13.0167 12.71 13.2967C12.89 13.4867 13 13.7467 13 14.0067C13 14.2667 12.89 14.5267 12.71 14.7167ZM16.21 18.2167C16.02 18.3967 15.76 18.5067 15.5 18.5067C15.24 18.5067 14.98 18.3967 14.79 18.2167C14.61 18.0267 14.5 17.7667 14.5 17.5067C14.5 17.2467 14.61 16.9867 14.79 16.7967C15.16 16.4267 15.84 16.4267 16.21 16.7967C16.39 16.9867 16.5 17.2467 16.5 17.5067C16.5 17.7667 16.39 18.0267 16.21 18.2167ZM16.21 14.7167C16.16 14.7567 16.11 14.7967 16.06 14.8367C16 14.8767 15.94 14.9067 15.88 14.9267C15.82 14.9567 15.76 14.9767 15.7 14.9867C15.63 14.9967 15.56 15.0067 15.5 15.0067C15.24 15.0067 14.98 14.8967 14.79 14.7167C14.61 14.5267 14.5 14.2667 14.5 14.0067C14.5 13.7467 14.61 13.4867 14.79 13.2967C14.89 13.2067 14.99 13.1367 15.12 13.0867C15.3 13.0067 15.5 12.9867 15.7 13.0267C15.76 13.0367 15.82 13.0567 15.88 13.0867C15.94 13.1067 16 13.1367 16.06 13.1767C16.11 13.2167 16.16 13.2567 16.21 13.2967C16.39 13.4867 16.5 13.7467 16.5 14.0067C16.5 14.2667 16.39 14.5267 16.21 14.7167Z" fill="#0FA8A4"/>
</svg>
