<svg width="24" height="24" viewBox="0 0 24 24" fill="none" xmlns="http://www.w3.org/2000/svg">
<path d="M7.75 2.72852C7.75 2.3143 7.41421 1.97852 7 1.97852C6.58579 1.97852 6.25 2.3143 6.25 2.72852V4.30777C4.81067 4.42303 3.86577 4.70589 3.17157 5.40009C2.47737 6.09429 2.19451 7.03919 2.07926 8.47852H21.9207C21.8055 7.03919 21.5226 6.09429 20.8284 5.40009C20.1342 4.70589 19.1893 4.42303 17.75 4.30777V2.72852C17.75 2.3143 17.4142 1.97852 17 1.97852C16.5858 1.97852 16.25 2.3143 16.25 2.72852V4.24142C15.5847 4.22852 14.839 4.22852 14 4.22852H10C9.16097 4.22852 8.41527 4.22852 7.75 4.24142V2.72852Z" fill="#222222" fill-opacity="0.8"/>
<path fill-rule="evenodd" clip-rule="evenodd" d="M2 12.2285C2 11.3895 2 10.6438 2.0129 9.97852H21.9871C22 10.6438 22 11.3895 22 12.2285V14.2285C22 17.9998 22 19.8854 20.8284 21.0569C19.6569 22.2285 17.7712 22.2285 14 22.2285H10C6.22876 22.2285 4.34315 22.2285 3.17157 21.0569C2 19.8854 2 17.9998 2 14.2285V12.2285ZM17 14.2285C17.5523 14.2285 18 13.7808 18 13.2285C18 12.6762 17.5523 12.2285 17 12.2285C16.4477 12.2285 16 12.6762 16 13.2285C16 13.7808 16.4477 14.2285 17 14.2285ZM17 18.2285C17.5523 18.2285 18 17.7808 18 17.2285C18 16.6762 17.5523 16.2285 17 16.2285C16.4477 16.2285 16 16.6762 16 17.2285C16 17.7808 16.4477 18.2285 17 18.2285ZM13 13.2285C13 13.7808 12.5523 14.2285 12 14.2285C11.4477 14.2285 11 13.7808 11 13.2285C11 12.6762 11.4477 12.2285 12 12.2285C12.5523 12.2285 13 12.6762 13 13.2285ZM13 17.2285C13 17.7808 12.5523 18.2285 12 18.2285C11.4477 18.2285 11 17.7808 11 17.2285C11 16.6762 11.4477 16.2285 12 16.2285C12.5523 16.2285 13 16.6762 13 17.2285ZM7 14.2285C7.55228 14.2285 8 13.7808 8 13.2285C8 12.6762 7.55228 12.2285 7 12.2285C6.44772 12.2285 6 12.6762 6 13.2285C6 13.7808 6.44772 14.2285 7 14.2285ZM7 18.2285C7.55228 18.2285 8 17.7808 8 17.2285C8 16.6762 7.55228 16.2285 7 16.2285C6.44772 16.2285 6 16.6762 6 17.2285C6 17.7808 6.44772 18.2285 7 18.2285Z" fill="#222222" fill-opacity="0.8"/>
</svg>
