<svg xmlns="http://www.w3.org/2000/svg" width="24" height="25" viewBox="0 0 24 25" fill="none"><path fill-rule="evenodd" clip-rule="evenodd" d="M21.8382 11.1782L21.609 13.6134C21.2313 17.626 21.0425 19.6323 19.8599 20.8421C18.6773 22.0519 16.9048 22.0519 13.3599 22.0519H10.6401C7.09517 22.0519 5.32271 22.0519 4.14009 20.8421C2.95748 19.6323 2.76865 17.626 2.391 13.6134L2.16181 11.1782C1.9818 9.26558 1.8918 8.30927 2.21899 7.91395C2.39598 7.70011 2.63666 7.56908 2.89399 7.54648C3.36968 7.5047 3.96708 8.18478 5.16187 9.54495C5.77977 10.2484 6.08872 10.6001 6.43337 10.6545C6.62434 10.6847 6.81892 10.6537 6.99526 10.565C7.31351 10.4048 7.5257 9.97 7.95007 9.1004L10.1869 4.51674C10.9888 2.8735 11.3898 2.05188 12 2.05188C12.6102 2.05188 13.0112 2.8735 13.8131 4.51673L16.0499 9.10039C16.4743 9.97 16.6865 10.4048 17.0047 10.565C17.1811 10.6537 17.3757 10.6847 17.5666 10.6545C17.9113 10.6001 18.2202 10.2484 18.8381 9.54495C20.0329 8.18478 20.6303 7.5047 21.106 7.54648C21.3633 7.56908 21.604 7.70011 21.781 7.91395C22.1082 8.30927 22.0182 9.26558 21.8382 11.1782ZM12.9524 12.7509L12.8541 12.5745C12.4741 11.8929 12.2841 11.552 12 11.552C11.7159 11.552 11.5259 11.8929 11.1459 12.5745L11.0476 12.7509C10.9397 12.9446 10.8857 13.0415 10.8015 13.1054C10.7173 13.1693 10.6125 13.193 10.4028 13.2405L10.2119 13.2836C9.47396 13.4506 9.10501 13.5341 9.01723 13.8164C8.92945 14.0986 9.18097 14.3928 9.68403 14.981L9.81418 15.1332C9.95713 15.3004 10.0286 15.384 10.0608 15.4874C10.0929 15.5908 10.0821 15.7023 10.0605 15.9253L10.0408 16.1284C9.96476 16.9132 9.92674 17.3056 10.1565 17.4801C10.3864 17.6546 10.7318 17.4955 11.4227 17.1774L11.6014 17.0951C11.7978 17.0047 11.8959 16.9595 12 16.9595C12.1041 16.9595 12.2022 17.0047 12.3986 17.0951L12.5773 17.1774C13.2682 17.4955 13.6136 17.6546 13.8435 17.4801C14.0733 17.3056 14.0352 16.9132 13.9592 16.1284L13.9395 15.9253C13.9179 15.7023 13.9071 15.5908 13.9392 15.4874C13.9714 15.384 14.0429 15.3004 14.1858 15.1332L14.316 14.981C14.819 14.3928 15.0706 14.0986 14.9828 13.8164C14.895 13.5341 14.526 13.4506 13.7881 13.2836L13.5972 13.2405C13.3875 13.193 13.2827 13.1693 13.1985 13.1054C13.1143 13.0415 13.0603 12.9446 12.9524 12.7509Z" fill="#222222"></path></svg>