<svg xmlns="http://www.w3.org/2000/svg" width="24" height="25" viewBox="0 0 24 25" fill="none"><path fill-rule="evenodd" clip-rule="evenodd" d="M2 12.0519V8.05188C2 5.22345 2 3.80924 2.87868 2.93056C3.75736 2.05188 5.17157 2.05188 8 2.05188H16C18.8284 2.05188 20.2426 2.05188 21.1213 2.93056C22 3.80924 22 5.22345 22 8.05188V12.0519C22 14.8803 22 16.2945 21.1213 17.1732C20.645 17.6495 20.0113 17.8676 19.0802 17.9675C19.0062 17.8676 18.9362 17.7889 18.8862 17.734C18.7701 17.6062 18.6228 17.4611 18.48 17.3203L16.987 15.8481L16.4357 15.2895C16.0733 13.167 14.2255 11.5519 12.0001 11.5519C9.77461 11.5519 7.9268 13.167 7.56446 15.2895L7.01311 15.848L5.5202 17.3202C5.37739 17.461 5.23008 17.6062 5.11392 17.734C5.06395 17.7889 4.9939 17.8676 4.9199 17.9675C3.98877 17.8677 3.35503 17.6495 2.87868 17.1732C2 16.2945 2 14.8803 2 12.0519ZM9 5.30188C8.58579 5.30188 8.25 5.63767 8.25 6.05188C8.25 6.46609 8.58579 6.80188 9 6.80188H15C15.4142 6.80188 15.75 6.46609 15.75 6.05188C15.75 5.63767 15.4142 5.30188 15 5.30188H9ZM6.25 9.55188C6.25 9.13767 6.58579 8.80188 7 8.80188H17C17.4142 8.80188 17.75 9.13767 17.75 9.55188C17.75 9.96609 17.4142 10.3019 17 10.3019H7C6.58579 10.3019 6.25 9.96609 6.25 9.55188Z" fill="#222222"></path><path d="M15 16.0519C15 17.7087 13.6569 19.0519 12 19.0519C10.3431 19.0519 9 17.7087 9 16.0519C9 14.395 10.3431 13.0519 12 13.0519C13.6569 13.0519 15 14.395 15 16.0519Z" fill="#222222"></path><path d="M9.00111 15.9693C9.00037 15.9967 9 16.0243 9 16.0519C9 17.7087 10.3431 19.0519 12 19.0519C13.6569 19.0519 15 17.7087 15 16.0519C15 16.0243 14.9996 15.9967 14.9989 15.9693C14.9551 14.3506 13.6292 13.0519 12 13.0519C10.4467 13.0519 9.16912 14.2324 9.01549 15.7451C9.00798 15.8191 9.00315 15.8939 9.00111 15.9693Z" fill="#222222"></path><path d="M7.6757 17.3012L6.59523 18.3667C6.27116 18.6863 6.10913 18.846 6.05306 18.9814C5.92529 19.2897 6.03463 19.6317 6.31283 19.7939C6.43492 19.8651 6.65512 19.8873 7.09553 19.9317C7.3442 19.9567 7.46853 19.9692 7.57266 20.0072C7.80579 20.0924 7.98715 20.2712 8.07345 20.5011C8.112 20.6038 8.1247 20.7264 8.1501 20.9716C8.19509 21.4059 8.21758 21.623 8.28977 21.7434C8.45425 22.0177 8.80111 22.1256 9.1138 21.9996C9.25102 21.9443 9.41306 21.7845 9.73713 21.4649L10.8175 20.3949C9.30505 19.9841 8.10917 18.8043 7.6757 17.3012Z" fill="#222222"></path><path d="M13.1825 20.3949L14.2629 21.4649C14.5869 21.7845 14.749 21.9443 14.8862 21.9996C15.1989 22.1256 15.5457 22.0177 15.7102 21.7434C15.7824 21.623 15.8049 21.4059 15.8499 20.9716C15.8753 20.7264 15.888 20.6038 15.9265 20.5011C16.0129 20.2712 16.1942 20.0924 16.4273 20.0072C16.5315 19.9692 16.6558 19.9567 16.9045 19.9317C17.3449 19.8873 17.5651 19.8651 17.6872 19.7939C17.9654 19.6317 18.0747 19.2897 17.9469 18.9814C17.8909 18.846 17.7288 18.6863 17.4048 18.3667L16.3243 17.3012C15.8908 18.8043 14.6949 19.9841 13.1825 20.3949Z" fill="#222222"></path></svg>