<svg xmlns="http://www.w3.org/2000/svg" width="24" height="25" viewBox="0 0 24 25" fill="none"><g clip-path="url(#clip0_923_111653)"><path fill-rule="evenodd" clip-rule="evenodd" d="M-0.226562 11.4531V6.7617C-0.226562 3.44438 -0.226562 1.78573 0.803995 0.755167C1.83455 -0.275391 3.49321 -0.275391 6.81052 -0.275391H16.1933C19.5106 -0.275391 21.1693 -0.275391 22.1998 0.755166C23.2304 1.78572 23.2304 3.44438 23.2304 6.7617V11.4531C23.2304 14.7704 23.2304 16.4291 22.1998 17.4596C21.4417 18.2177 20.3437 18.4181 18.4956 18.4711C18.4913 17.6081 18.1915 16.7463 17.5962 16.0478C17.5625 16.0083 17.5422 15.9591 17.538 15.9074C17.3909 14.0643 15.9274 12.6007 14.0843 12.4536C14.0325 12.4495 13.9834 12.4292 13.9439 12.3955C12.5366 11.1962 10.4668 11.1962 9.05952 12.3955C9.02001 12.4292 8.97089 12.4495 8.91915 12.4536C7.07604 12.6007 5.61246 14.0643 5.46538 15.9074C5.46125 15.9591 5.4409 16.0083 5.40723 16.0478C4.81193 16.7463 4.51213 17.6081 4.50783 18.4711C2.65994 18.4181 1.56204 18.2177 0.803995 17.4596C-0.226562 16.4291 -0.226562 14.7704 -0.226562 11.4531ZM7.10374 4.416C7.10374 3.93019 7.49756 3.53637 7.98337 3.53637H15.0205C15.5063 3.53637 15.9001 3.93019 15.9001 4.416C15.9001 4.90181 15.5063 5.29564 15.0205 5.29564H7.98337C7.49756 5.29564 7.10374 4.90181 7.10374 4.416ZM5.63768 7.64133C5.15187 7.64133 4.75804 8.03516 4.75804 8.52097C4.75804 9.00678 5.15187 9.4006 5.63768 9.4006H17.3662C17.852 9.4006 18.2458 9.00678 18.2458 8.52097C18.2458 8.03516 17.852 7.64133 17.3662 7.64133H5.63768Z" fill="#222222"></path><path fill-rule="evenodd" clip-rule="evenodd" d="M12.8028 13.7345C12.0531 13.0956 10.9503 13.0956 10.2006 13.7345C9.87933 14.0083 9.47987 14.1738 9.05909 14.2073C8.07716 14.2857 7.29743 15.0654 7.21908 16.0474C7.1855 16.4681 7.02003 16.8676 6.74624 17.1889C6.10732 17.9386 6.10732 19.0413 6.74624 19.791C7.02003 20.1123 7.1855 20.5118 7.21908 20.9326C7.29743 21.9145 8.07716 22.6942 9.05909 22.7726C9.47987 22.8062 9.87933 22.9716 10.2006 23.2454C10.9503 23.8843 12.0531 23.8843 12.8028 23.2454C13.1241 22.9716 13.5235 22.8062 13.9443 22.7726C14.9262 22.6942 15.706 21.9145 15.7843 20.9326C15.8179 20.5118 15.9834 20.1123 16.2572 19.791C16.8961 19.0413 16.8961 17.9386 16.2572 17.1889C15.9834 16.8676 15.8179 16.4681 15.7843 16.0474C15.706 15.0654 14.9262 14.2857 13.9443 14.2073C13.5235 14.1738 13.1241 14.0083 12.8028 13.7345ZM13.8614 17.9604C14.2165 17.6289 14.2357 17.0723 13.9043 16.7171C13.5728 16.362 13.0162 16.3428 12.661 16.6743L10.7479 18.4598L10.3428 18.0817C9.98769 17.7502 9.43106 17.7694 9.09958 18.1246C8.76811 18.4797 8.7873 19.0363 9.14246 19.3678L10.1478 20.3061C10.4857 20.6215 11.0102 20.6215 11.3481 20.3061L13.8614 17.9604Z" fill="#222222"></path></g><defs><clipPath id="clip0_923_111653"><rect width="24" height="24" fill="white" transform="translate(0 0.15332)"></rect></clipPath></defs></svg>