<svg xmlns="http://www.w3.org/2000/svg" width="24" height="25" viewBox="0 0 24 25" fill="none"><path d="M16.5189 16.6629C16.6939 16.5264 16.8526 16.3677 17.1701 16.0503L21.1275 12.0929C21.2231 11.9972 21.1793 11.8324 21.0515 11.7881C20.5844 11.626 19.9767 11.3217 19.4083 10.7533C18.8399 10.1849 18.5356 9.57723 18.3736 9.11011C18.3292 8.98228 18.1644 8.93849 18.0688 9.03417L14.1114 12.9916C13.7939 13.309 13.6352 13.4677 13.4987 13.6427C13.3377 13.8492 13.1996 14.0725 13.087 14.3089C12.9915 14.5092 12.9205 14.7222 12.7786 15.1481L12.5951 15.6984L12.3034 16.5734L12.0299 17.3939C11.9601 17.6035 12.0146 17.8346 12.1708 17.9908C12.3271 18.147 12.5581 18.2015 12.7677 18.1317L13.5882 17.8582L14.4632 17.5665L15.0135 17.3831L15.0136 17.3831C15.4394 17.2411 15.6524 17.1701 15.8527 17.0746C16.0891 16.962 16.3124 16.8239 16.5189 16.6629Z" fill="#222222"></path><path d="M22.3665 10.8538C23.2112 10.0092 23.2112 8.63974 22.3665 7.7951C21.5219 6.95046 20.1525 6.95046 19.3078 7.7951L19.1806 7.92233C19.0578 8.0451 19.0022 8.21658 19.0329 8.38748C19.0522 8.49498 19.0879 8.65215 19.153 8.8397C19.2831 9.21476 19.5288 9.70711 19.9917 10.1699C20.4545 10.6328 20.9469 10.8785 21.3219 11.0086C21.5095 11.0737 21.6666 11.1095 21.7741 11.1288C21.945 11.1594 22.1165 11.1038 22.2393 10.981L22.3665 10.8538Z" fill="#222222"></path><path fill-rule="evenodd" clip-rule="evenodd" d="M4.17157 3.33319C3 4.50477 3 6.39038 3 10.1616V14.1616C3 17.9329 3 19.8185 4.17157 20.99C5.34315 22.1616 7.22876 22.1616 11 22.1616H13C16.7712 22.1616 18.6569 22.1616 19.8284 20.99C20.9812 19.8373 20.9997 17.9932 21 14.3417L18.1817 17.16C17.9119 17.43 17.691 17.6511 17.4415 17.8457C17.1491 18.0737 16.8328 18.2692 16.4981 18.4287C16.2124 18.5649 15.9159 18.6636 15.5538 18.7841L13.2421 19.5547C12.4935 19.8042 11.6682 19.6094 11.1102 19.0514C10.5523 18.4935 10.3574 17.6682 10.607 16.9196L10.8805 16.0991L11.3556 14.6737L11.3775 14.6079C11.4981 14.2458 11.5968 13.9492 11.7329 13.6636C11.8924 13.3289 12.0879 13.0125 12.316 12.7202C12.5106 12.4707 12.7317 12.2497 13.0017 11.9799L17.0081 7.97351L18.12 6.86166L18.2472 6.73444C18.9626 6.01904 19.9003 5.66143 20.838 5.66162C20.6867 4.63107 20.3941 3.89889 19.8284 3.33319C18.6569 2.16162 16.7712 2.16162 13 2.16162H11C7.22876 2.16162 5.34315 2.16162 4.17157 3.33319ZM7.25 9.16162C7.25 8.74741 7.58579 8.41162 8 8.41162H14.5C14.9142 8.41162 15.25 8.74741 15.25 9.16162C15.25 9.57583 14.9142 9.91162 14.5 9.91162H8C7.58579 9.91162 7.25 9.57583 7.25 9.16162ZM7.25 13.1616C7.25 12.7474 7.58579 12.4116 8 12.4116H10.5C10.9142 12.4116 11.25 12.7474 11.25 13.1616C11.25 13.5758 10.9142 13.9116 10.5 13.9116H8C7.58579 13.9116 7.25 13.5758 7.25 13.1616ZM7.25 17.1616C7.25 16.7474 7.58579 16.4116 8 16.4116H9.5C9.91421 16.4116 10.25 16.7474 10.25 17.1616C10.25 17.5758 9.91421 17.9116 9.5 17.9116H8C7.58579 17.9116 7.25 17.5758 7.25 17.1616Z" fill="#222222"></path></svg>