<svg xmlns="http://www.w3.org/2000/svg" width="25" height="25" viewBox="0 0 25 25" fill="none"><path d="M16.2083 3.06787C18.9697 3.06787 21.2083 5.30645 21.2083 8.06787V16.0679C21.2083 18.8293 18.9697 21.0679 16.2083 21.0679H8.20825C5.44683 21.0679 3.20825 18.8293 3.20825 16.0679V8.06787C3.20825 5.30645 5.44683 3.06787 8.20825 3.06787H16.2083ZM13.6526 8.92627C13.1937 8.43536 12.6963 8.68208 12.636 9.32275C12.4686 11.0955 12.7614 13.1262 12.6448 14.9263C12.7054 15.5227 13.4321 15.7315 13.7229 15.1655H13.7219C13.7836 13.8687 13.7954 12.5671 13.7561 11.2603C13.8307 11.1928 13.8722 11.223 13.925 11.2944C13.9427 11.3211 13.9785 11.3388 13.9934 11.3608C14.1276 11.5724 14.1023 11.5447 14.1965 11.6948C15.0169 12.8936 15.8896 14.0677 16.676 15.2925C17.1418 15.7143 17.6019 15.4533 17.6555 14.8687C17.823 13.0491 17.5263 10.9754 17.6477 9.12842C17.5994 8.76483 17.1611 8.57962 16.8391 8.7251C16.7772 8.75287 16.5676 9.01609 16.5676 9.05811V13.1626L13.6526 8.92627ZM11.3977 8.55908C10.1706 8.37695 8.48973 8.6838 7.21313 8.55908C6.92116 8.6034 6.74715 8.83496 6.76001 9.11182C6.8955 10.8987 6.59158 12.9018 6.76001 14.6616C6.7937 15.0106 6.96648 15.2446 7.34595 15.2876C8.58334 15.4282 10.1189 15.1908 11.3879 15.272C11.7785 15.1696 11.9903 14.6687 11.6926 14.3804C11.6762 14.3646 11.421 14.2311 11.4026 14.23H7.86255V12.4487H11.3333C11.9571 12.4487 11.9173 11.3931 11.4709 11.3931H7.86255V9.54541H11.47C11.8249 9.54541 12.0723 8.6595 11.3977 8.55908Z" fill="#222222"></path></svg>