<svg width="24" height="25" viewBox="0 0 24 25" fill="none" xmlns="http://www.w3.org/2000/svg">
<path fill-rule="evenodd" clip-rule="evenodd" d="M3.25 22.0127C3.25 21.5985 3.58579 21.2627 4 21.2627H20C20.4142 21.2627 20.75 21.5985 20.75 22.0127C20.75 22.4269 20.4142 22.7627 20 22.7627H4C3.58579 22.7627 3.25 22.4269 3.25 22.0127Z" fill="#222222"/>
<path d="M11.5201 14.9416L11.5201 14.9416L17.4368 9.02495C16.6315 8.68979 15.6777 8.13926 14.7757 7.23724C13.8736 6.33508 13.323 5.38116 12.9879 4.57582L7.07106 10.4926L7.07101 10.4927C6.60932 10.9544 6.37846 11.1852 6.17992 11.4398C5.94571 11.74 5.74491 12.0649 5.58107 12.4087C5.44219 12.7001 5.33894 13.0099 5.13245 13.6294L4.04356 16.896C3.94194 17.2009 4.02128 17.537 4.2485 17.7642C4.47573 17.9914 4.81182 18.0708 5.11667 17.9691L8.38334 16.8802C9.00281 16.6738 9.31256 16.5705 9.60398 16.4316C9.94775 16.2678 10.2727 16.067 10.5729 15.8328C10.8275 15.6342 11.0584 15.4034 11.5201 14.9416Z" fill="#222222"/>
<path d="M19.0786 7.38314C20.3071 6.15458 20.3071 4.16268 19.0786 2.93412C17.85 1.70555 15.8581 1.70555 14.6296 2.93412L13.9199 3.64375C13.9296 3.67309 13.9397 3.70284 13.9502 3.73298C14.2103 4.48269 14.701 5.4655 15.6243 6.38871C16.5475 7.31192 17.5303 7.80268 18.28 8.06279C18.31 8.0732 18.3396 8.08323 18.3688 8.09291L19.0786 7.38314Z" fill="#222222"/>
</svg>
