<svg xmlns="http://www.w3.org/2000/svg" width="24" height="25" viewBox="0 0 24 25" fill="none"><path d="M22 4.89314V16.7831C22 17.7531 21.21 18.6431 20.24 18.7631L19.93 18.8031C18.29 19.0231 15.98 19.7031 14.12 20.4831C13.47 20.7531 12.75 20.2631 12.75 19.5531V5.64314C12.75 5.27314 12.96 4.93314 13.29 4.75314C15.12 3.76314 17.89 2.88314 19.77 2.72314H19.83C21.03 2.72314 22 3.69314 22 4.89314Z" fill="#222222"></path><path d="M10.7102 4.75314C8.88023 3.76314 6.11023 2.88314 4.23023 2.72314H4.16023C2.96023 2.72314 1.99023 3.69314 1.99023 4.89314V16.7831C1.99023 17.7531 2.78023 18.6431 3.75023 18.7631L4.06023 18.8031C5.70023 19.0231 8.01023 19.7031 9.87023 20.4831C10.5202 20.7531 11.2402 20.2631 11.2402 19.5531V5.64314C11.2402 5.26314 11.0402 4.93314 10.7102 4.75314ZM5.00023 7.78314H7.25023C7.66023 7.78314 8.00023 8.12314 8.00023 8.53314C8.00023 8.95314 7.66023 9.28314 7.25023 9.28314H5.00023C4.59023 9.28314 4.25023 8.95314 4.25023 8.53314C4.25023 8.12314 4.59023 7.78314 5.00023 7.78314ZM8.00023 12.2831H5.00023C4.59023 12.2831 4.25023 11.9531 4.25023 11.5331C4.25023 11.1231 4.59023 10.7831 5.00023 10.7831H8.00023C8.41023 10.7831 8.75023 11.1231 8.75023 11.5331C8.75023 11.9531 8.41023 12.2831 8.00023 12.2831Z" fill="#222222"></path></svg>