<svg xmlns="http://www.w3.org/2000/svg" width="10" height="11" viewBox="0 0 10 11" fill="none"><path d="M0.190591 4.2011H2.25522V10.828H0.190591V4.2011ZM1.2229 0.907776C1.88258 0.907776 2.41636 1.44155 2.41636 2.10123C2.41636 2.7609 1.88258 3.29468 1.2229 3.29468C0.563231 3.29468 0.0244141 2.7609 0.0244141 2.10123C0.0244141 1.44155 0.558195 0.907776 1.2229 0.907776Z" fill="white"></path><path d="M3.54898 4.20085H5.52296V5.10727H5.54814C5.8251 4.58356 6.49485 4.03467 7.49695 4.03467C9.58171 4.03467 9.96946 5.40437 9.96946 7.19203V10.8278H7.90987V7.60496C7.90987 6.8345 7.89476 5.84751 6.83727 5.84751C5.77978 5.84751 5.60353 6.68343 5.60353 7.54956V10.8278H3.54395V4.20085H3.54898Z" fill="white"></path></svg>