<svg xmlns="http://www.w3.org/2000/svg" width="14" height="14" viewBox="0 0 14 14" fill="none"><path d="M10.3083 2.9978C9.90544 2.9978 9.57812 3.32512 9.57812 3.72797C9.57812 4.13083 9.90544 4.45815 10.3083 4.45815C10.7111 4.45815 11.0385 4.13083 11.0385 3.72797C11.0385 3.32512 10.7111 2.9978 10.3083 2.9978Z" fill="white"></path><path d="M7.05043 3.93439C5.35341 3.93439 3.97363 5.31416 3.97363 7.01118C3.97363 8.7082 5.35341 10.088 7.05043 10.088C8.74745 10.088 10.1272 8.7082 10.1272 7.01118C10.1272 5.31416 8.74745 3.93439 7.05043 3.93439ZM7.05043 8.98013C5.96272 8.98013 5.08149 8.09385 5.08149 7.01118C5.08149 5.92851 5.96776 5.04223 7.05043 5.04223C8.1331 5.04223 9.01938 5.92851 9.01938 7.01118C9.01938 8.09385 8.1331 8.98013 7.05043 8.98013Z" fill="white"></path><path d="M9.49275 13.2554H4.50743C2.43777 13.2554 0.755859 11.5735 0.755859 9.50379V4.51848C0.755859 2.44882 2.43777 0.766907 4.50743 0.766907H9.49275C11.5624 0.766907 13.2443 2.44882 13.2443 4.51848V9.50379C13.2443 11.5735 11.5624 13.2554 9.49275 13.2554ZM4.50743 1.94022C3.08737 1.94022 1.92917 3.09842 1.92917 4.51848V9.50379C1.92917 10.9239 3.08737 12.0821 4.50743 12.0821H9.49275C10.9128 12.0821 12.071 10.9239 12.071 9.50379V4.51848C12.071 3.09842 10.9128 1.94022 9.49275 1.94022H4.50743Z" fill="white"></path></svg>