<svg xmlns="http://www.w3.org/2000/svg" width="18" height="19" viewBox="0 0 18 19" fill="none"><path d="M13.6301 18.0678H4.95541C4.59975 18.0678 4.30481 17.7729 4.30481 17.4172C4.30481 17.0615 4.59975 16.7666 4.95541 16.7666H13.6301C13.9858 16.7666 14.2807 17.0615 14.2807 17.4172C14.2807 17.7729 13.9858 18.0678 13.6301 18.0678Z" fill="#292D32"></path><path d="M14.4976 0.0678711H4.08792C2.17081 0.0678711 0.618042 1.62064 0.618042 3.53775V11.345C0.618042 13.2621 2.17081 14.8149 4.08792 14.8149H14.4976C16.4147 14.8149 17.9674 13.2621 17.9674 11.345V3.53775C17.9674 1.62064 16.4147 0.0678711 14.4976 0.0678711ZM7.54913 4.68281C8.03491 4.68281 8.42527 5.07317 8.42527 5.55028C8.42527 6.02739 8.03491 6.41775 7.5578 6.41775C7.08069 6.41775 6.69033 6.02739 6.69033 5.55028C6.69033 5.07317 7.07202 4.68281 7.54913 4.68281ZM4.8166 4.68281C5.30238 4.68281 5.69274 5.07317 5.69274 5.55028C5.69274 6.02739 5.30238 6.41775 4.82527 6.41775C4.34816 6.41775 3.9578 6.02739 3.9578 5.55028C3.9578 5.07317 4.33081 4.68281 4.8166 4.68281ZM13.8556 11.2235H4.7472C4.38286 11.2235 4.08792 10.9286 4.08792 10.5729C4.08792 10.2173 4.37419 9.92233 4.72985 9.92233H13.8643C14.22 9.92233 14.5149 10.2173 14.5149 10.5729C14.5149 10.9286 14.22 11.2235 13.8556 11.2235ZM13.8556 6.20088H10.6633C10.3077 6.20088 10.0127 5.90594 10.0127 5.55028C10.0127 5.19462 10.3077 4.89968 10.6633 4.89968H13.8556C14.2113 4.89968 14.5062 5.19462 14.5062 5.55028C14.5062 5.90594 14.22 6.20088 13.8556 6.20088Z" fill="#292D32"></path></svg>