<svg xmlns="http://www.w3.org/2000/svg" width="24" height="25" viewBox="0 0 24 25" fill="none"><path d="M8.50989 2.13721H15.49C15.7225 2.13716 15.9007 2.13711 16.0565 2.15235C17.1643 2.26072 18.0711 2.92679 18.4556 3.82398H5.54428C5.92879 2.92679 6.83555 2.26072 7.94337 2.15235C8.09917 2.13711 8.27741 2.13716 8.50989 2.13721Z" fill="#222222"></path><path d="M6.31052 4.86032C4.91989 4.86032 3.77963 5.70008 3.3991 6.81412C3.39117 6.83734 3.38356 6.86068 3.37629 6.88414C3.77444 6.76357 4.18881 6.6848 4.60827 6.63102C5.68865 6.49252 7.05399 6.49259 8.64002 6.49268L8.75846 6.49268L15.5321 6.49268C17.1181 6.49259 18.4835 6.49252 19.5639 6.63102C19.9833 6.6848 20.3977 6.76357 20.7958 6.88414C20.7886 6.86068 20.781 6.83734 20.773 6.81412C20.3925 5.70008 19.2522 4.86032 17.8616 4.86032H6.31052Z" fill="#222222"></path><path fill-rule="evenodd" clip-rule="evenodd" d="M8.67239 7.67925H15.3276C18.7024 7.67925 20.3898 7.67925 21.3377 8.66608C22.2855 9.65291 22.0625 11.1775 21.6165 14.2268L21.1935 17.1184C20.8437 19.5096 20.6689 20.7052 19.7717 21.4212C18.8745 22.1372 17.5512 22.1372 14.9046 22.1372H9.09536C6.44881 22.1372 5.12553 22.1372 4.22834 21.4212C3.33115 20.7052 3.15626 19.5096 2.80648 17.1184L2.38351 14.2268C1.93748 11.1775 1.71447 9.65291 2.66232 8.66608C3.61017 7.67925 5.29758 7.67925 8.67239 7.67925ZM8 18.1374C8 17.7231 8.3731 17.3873 8.83333 17.3873H15.1667C15.6269 17.3873 16 17.7231 16 18.1374C16 18.5516 15.6269 18.8874 15.1667 18.8874H8.83333C8.3731 18.8874 8 18.5516 8 18.1374Z" fill="#222222"></path></svg>