<svg xmlns="http://www.w3.org/2000/svg" width="24" height="25" viewBox="0 0 24 25" fill="none"><path fill-rule="evenodd" clip-rule="evenodd" d="M14.0705 4.22878L14.0705 7.74819C14.0703 7.87621 14.07 8.05871 14.0943 8.21539C14.1241 8.40693 14.2219 8.77672 14.6021 9.00154C14.9682 9.21806 15.3263 9.13765 15.4965 9.08436C15.645 9.0379 15.8077 8.95983 15.929 8.90162L17.2134 8.28715L18.4977 8.90162C18.6191 8.95983 18.7818 9.03789 18.9302 9.08436C19.1004 9.13765 19.4585 9.21806 19.8247 9.00154C20.2049 8.77672 20.3027 8.40693 20.3324 8.21539C20.3567 8.05873 20.3564 7.87624 20.3563 7.74822L20.3562 2.56184C20.4851 2.55574 20.6117 2.55058 20.7354 2.54624C21.9603 2.50327 22.9275 3.51654 22.9275 4.75094V17.6542C22.9275 18.933 21.892 19.9676 20.6248 20.0475C19.5169 20.1173 18.2151 20.2537 17.2132 20.52C15.9772 20.8485 14.5012 21.5595 13.359 22.1727C13.0401 22.3439 12.7024 22.468 12.3562 22.5448V5.02796C12.7228 4.93754 13.0788 4.79494 13.4118 4.6008C13.6225 4.47804 13.8433 4.35283 14.0705 4.22878ZM20.3306 13.8266C20.4455 14.2891 20.1662 14.7578 19.707 14.8734L15.1355 16.0244C14.6763 16.1401 14.2109 15.8589 14.0961 15.3963C13.9813 14.9338 14.2605 14.4651 14.7198 14.3495L19.2912 13.1985C19.7505 13.0828 20.2158 13.364 20.3306 13.8266Z" fill="#222222"></path><path fill-rule="evenodd" clip-rule="evenodd" d="M10.6419 5.07412C10.26 5.00105 9.88672 4.8714 9.53574 4.68449C8.40872 4.0843 6.98369 3.40554 5.7846 3.08687C4.77144 2.81761 3.45177 2.68108 2.33592 2.61201C1.08323 2.53447 0.0703125 3.5613 0.0703125 4.82531V17.6542C0.0703125 18.933 1.10579 19.9676 2.37301 20.0475C3.48092 20.1173 4.78265 20.2537 5.7846 20.52C7.02054 20.8485 8.49652 21.5595 9.63879 22.1727C9.95781 22.344 10.2957 22.4681 10.6419 22.5449V5.07412ZM2.66754 9.22252C2.78235 8.75999 3.24772 8.47877 3.70697 8.5944L8.2784 9.74542C8.73766 9.86105 9.01688 10.3297 8.90207 10.7923C8.78725 11.2548 8.32188 11.536 7.86263 11.4204L3.2912 10.2694C2.83195 10.1537 2.55272 9.68505 2.66754 9.22252ZM3.70697 13.1985C3.24772 13.0828 2.78235 13.364 2.66754 13.8266C2.55272 14.2891 2.83195 14.7578 3.2912 14.8734L7.86263 16.0244C8.32188 16.1401 8.78725 15.8589 8.90207 15.3963C9.01688 14.9338 8.73766 14.4651 8.2784 14.3495L3.70697 13.1985Z" fill="#222222"></path><path d="M18.6419 2.69962C17.9333 2.784 17.2367 2.90748 16.6417 3.08687C16.3657 3.17009 16.0776 3.27559 15.7848 3.39644V3.6193V7.05918L16.6412 6.6495L16.6512 6.64439C16.7072 6.61555 16.9433 6.49401 17.2134 6.49401C17.2677 6.49401 17.3207 6.49892 17.371 6.50701C17.5711 6.53915 17.7308 6.62135 17.7755 6.64439L17.7856 6.64949L18.6419 7.05918V3.27012V2.69962Z" fill="#222222"></path></svg>