<svg xmlns="http://www.w3.org/2000/svg" width="422" height="251" viewBox="0 0 422 251" fill="none"><path d="M62.9986 171H9.95898V245.765H62.9986V171Z" fill="#009361"></path><path d="M215.395 171H162.355V245.765H215.395V171Z" fill="#009361"></path><path d="M215.394 132.719H9.95898V199.276H215.394V132.719Z" fill="#E89738"></path><path d="M2.49839 25.5464C-10.5446 85.7771 28.7724 144.946 90.3146 157.712C151.857 170.477 212.329 131.997 225.372 71.7667L2.49839 25.5464Z" fill="#E05279"></path><path d="M67.7673 59.9623C82.8852 56.4375 92.221 41.5858 88.6194 26.7901C85.0178 11.9944 69.8427 2.85755 54.7249 6.38238C39.607 9.90721 30.2712 24.7589 33.8728 39.5546C37.4744 54.3503 52.6495 63.4872 67.7673 59.9623Z" fill="#FFD836"></path><g style="mix-blend-mode:hard-light"><g style="mix-blend-mode:hard-light"><path d="M95.9255 92.4145C95.9255 89.0888 93.1636 86.3857 89.7655 86.3857C86.3673 86.3857 83.6055 89.0888 83.6055 92.4145" stroke="#222222" stroke-opacity="0.2" stroke-width="3" stroke-linecap="round" stroke-linejoin="round"></path><path d="M142.675 92.4145C142.675 89.0888 139.914 86.3857 136.515 86.3857C133.117 86.3857 130.355 89.0888 130.355 92.4145" stroke="#222222" stroke-opacity="0.2" stroke-width="3" stroke-linecap="round" stroke-linejoin="round"></path></g><path d="M113.669 118.836C103.041 118.836 99.1656 108.293 98.6161 102.717C98.5149 101.655 99.3102 100.707 100.395 100.594C101.479 100.495 102.448 101.259 102.564 102.335C102.622 102.844 103.995 114.958 113.684 114.958C123.372 114.958 124.789 102.462 124.803 102.349C124.905 101.288 125.888 100.495 126.972 100.608C128.057 100.707 128.852 101.655 128.751 102.731C128.187 108.307 124.326 118.85 113.698 118.85L113.669 118.836Z" fill="#222222" fill-opacity="0.2"></path></g><path d="M94.4802 92.4145C94.4802 89.0888 91.7183 86.3857 88.3202 86.3857C84.922 86.3857 82.1602 89.0888 82.1602 92.4145" stroke="#1D1D1B" stroke-width="3" stroke-linecap="round" stroke-linejoin="round"></path><path d="M141.23 92.4145C141.23 89.0888 138.468 86.3857 135.07 86.3857C131.672 86.3857 128.91 89.0888 128.91 92.4145" stroke="#1D1D1B" stroke-width="3" stroke-linecap="round" stroke-linejoin="round"></path><path d="M111.687 118.836C101.058 118.836 97.1832 108.293 96.6337 102.717C96.5325 101.655 97.3278 100.707 98.4123 100.594C99.4968 100.495 100.466 101.259 100.581 102.335C100.639 102.844 102.013 114.958 111.701 114.958C121.389 114.958 122.806 102.462 122.821 102.349C122.922 101.288 123.891 100.495 124.99 100.608C126.074 100.707 126.87 101.655 126.769 102.731C126.205 108.307 122.344 118.85 111.716 118.85L111.687 118.836Z" fill="#1D1D1B"></path><path d="M391.224 181.014C408.137 142.598 390.027 98.0364 350.774 81.4838C311.521 64.9311 265.99 82.6551 249.077 121.071C232.164 159.488 250.274 204.049 289.527 220.602C328.779 237.154 374.311 219.43 391.224 181.014Z" fill="#FFD836"></path><path d="M348.12 189.328H292.111V244.142H348.12V189.328Z" fill="#E05279"></path><g style="mix-blend-mode:hard-light"><path d="M304.068 145.641C304.068 142.352 301.337 139.678 297.976 139.678C294.615 139.678 291.883 142.352 291.883 145.641C291.883 148.931 294.615 151.604 297.976 151.604C301.337 151.604 304.068 148.931 304.068 145.641Z" fill="#222222" fill-opacity="0.2"></path><path d="M350.324 145.641C350.324 142.352 347.593 139.678 344.231 139.678C340.87 139.678 338.139 142.352 338.139 145.641C338.139 148.931 340.87 151.604 344.231 151.604C347.593 151.604 350.324 148.931 350.324 145.641Z" fill="#222222" fill-opacity="0.2"></path><path d="M321.104 171.775C310.592 171.775 306.759 161.346 306.216 155.831C306.116 154.782 306.902 153.844 307.975 153.732C309.048 153.634 310.006 154.39 310.12 155.453C310.177 155.957 311.536 167.939 321.119 167.939C330.701 167.939 332.103 155.579 332.117 155.467C332.217 154.418 333.19 153.634 334.263 153.746C335.335 153.844 336.122 154.796 336.022 155.845C335.464 161.36 331.645 171.789 321.133 171.789L321.104 171.775Z" fill="#222222" fill-opacity="0.2"></path></g><g style="mix-blend-mode:hard-light"><path d="M302.109 145.641C302.109 142.352 299.378 139.678 296.017 139.678C292.656 139.678 289.924 142.352 289.924 145.641C289.924 148.931 292.656 151.604 296.017 151.604C299.378 151.604 302.109 148.931 302.109 145.641Z" fill="#1D1D1B"></path></g><g style="mix-blend-mode:hard-light"><path d="M348.363 145.641C348.363 142.352 345.632 139.678 342.271 139.678C338.909 139.678 336.178 142.352 336.178 145.641C336.178 148.931 338.909 151.604 342.271 151.604C345.632 151.604 348.363 148.931 348.363 145.641Z" fill="#1D1D1B"></path></g><g style="mix-blend-mode:hard-light"><path d="M319.143 171.775C308.631 171.775 304.798 161.346 304.255 155.831C304.155 154.782 304.941 153.844 306.014 153.732C307.087 153.634 308.045 154.39 308.159 155.453C308.216 155.957 309.575 167.939 319.158 167.939C328.74 167.939 330.142 155.579 330.156 155.467C330.256 154.418 331.215 153.634 332.302 153.746C333.374 153.844 334.161 154.796 334.061 155.845C333.503 161.36 329.684 171.789 319.172 171.789L319.143 171.775Z" fill="#1D1D1B"></path></g><path d="M320.131 6.64453L232.328 118.807H320.131H407.919L320.131 6.64453Z" fill="#009361"></path></svg>