<svg width="19" height="19" viewBox="0 0 19 19" fill="none" xmlns="http://www.w3.org/2000/svg">
<path fill-rule="evenodd" clip-rule="evenodd" d="M11.632 18.9229H8.03203C4.63792 18.9229 2.94086 18.9229 1.88645 17.8684C0.832031 16.814 0.832031 15.117 0.832031 11.7229V8.12285C0.832031 4.72874 0.832031 3.03168 1.88645 1.97727C2.94086 0.922852 4.64686 0.922852 8.05884 0.922852C8.60425 0.922852 9.04129 0.922851 9.40904 0.937847C9.39693 1.00979 9.39059 1.08317 9.39034 1.15736L9.38203 3.70832C9.38195 4.69572 9.38188 5.56833 9.47645 6.27169C9.57895 7.0341 9.8143 7.79639 10.4364 8.41853C11.0586 9.04068 11.8209 9.27603 12.5833 9.37853C13.2867 9.4731 14.1593 9.47303 15.1467 9.47295L15.232 9.47295H18.7937C18.832 9.95379 18.832 10.5439 18.832 11.3295V11.7229C18.832 15.117 18.832 16.814 17.7776 17.8684C16.7232 18.9229 15.0261 18.9229 11.632 18.9229ZM3.75703 12.1729C3.75703 11.8001 4.05924 11.4979 4.43203 11.4979H11.632C12.0048 11.4979 12.307 11.8001 12.307 12.1729C12.307 12.5456 12.0048 12.8479 11.632 12.8479H4.43203C4.05924 12.8479 3.75703 12.5456 3.75703 12.1729ZM3.75703 15.3229C3.75703 14.9501 4.05924 14.6479 4.43203 14.6479H9.38203C9.75482 14.6479 10.057 14.9501 10.057 15.3229C10.057 15.6956 9.75482 15.9979 9.38203 15.9979H4.43203C4.05924 15.9979 3.75703 15.6956 3.75703 15.3229Z" fill="white"/>
<path d="M16.4486 5.97784L12.8857 2.77123C11.8706 1.85766 11.3631 1.40088 10.7403 1.16191L10.732 3.62295C10.732 5.74427 10.732 6.80493 11.391 7.46394C12.0501 8.12295 13.1107 8.12295 15.232 8.12295H18.4541C18.1278 7.48915 17.5436 6.96333 16.4486 5.97784Z" fill="white"/>
</svg>
