<svg xmlns="http://www.w3.org/2000/svg" width="24" height="25" viewBox="0 0 24 25" fill="none"><path fill-rule="evenodd" clip-rule="evenodd" d="M12 22.1372C7.28595 22.1372 4.92893 22.1372 3.46447 20.6727C2 19.2083 2 16.8513 2 12.1372C2 7.42316 2 5.06614 3.46447 3.60167C4.92893 2.13721 7.28595 2.13721 12 2.13721C16.714 2.13721 19.0711 2.13721 20.5355 3.60167C22 5.06614 22 7.42316 22 12.1372C22 16.8513 22 19.2083 20.5355 20.6727C19.0711 22.1372 16.714 22.1372 12 22.1372ZM12 7.88721C11.3787 7.88721 10.875 8.39089 10.875 9.01221C10.875 9.42642 10.5392 9.76221 10.125 9.76221C9.71079 9.76221 9.375 9.42642 9.375 9.01221C9.375 7.56246 10.5503 6.38721 12 6.38721C13.4497 6.38721 14.625 7.56246 14.625 9.01221C14.625 9.72304 14.3415 10.3692 13.883 10.8412C13.7907 10.9361 13.7027 11.0241 13.6187 11.108C13.4029 11.3236 13.2138 11.5125 13.0479 11.7257C12.8289 12.0071 12.75 12.214 12.75 12.3872V13.1372C12.75 13.5514 12.4142 13.8872 12 13.8872C11.5858 13.8872 11.25 13.5514 11.25 13.1372V12.3872C11.25 11.732 11.555 11.2016 11.8642 10.8044C12.0929 10.5105 12.3804 10.2235 12.6138 9.99067C12.6842 9.92042 12.7496 9.85509 12.807 9.79598C13.0046 9.59264 13.125 9.31725 13.125 9.01221C13.125 8.39089 12.6213 7.88721 12 7.88721ZM12 17.1372C12.5523 17.1372 13 16.6895 13 16.1372C13 15.5849 12.5523 15.1372 12 15.1372C11.4477 15.1372 11 15.5849 11 16.1372C11 16.6895 11.4477 17.1372 12 17.1372Z" fill="#222222"></path></svg>