<svg width="24" height="25" viewBox="0 0 24 25" fill="none" xmlns="http://www.w3.org/2000/svg">
<path d="M17 2.77307H7C4 2.77307 2 4.77307 2 7.77307V13.7731C2 16.7731 4 18.7731 7 18.7731V20.9031C7 21.7031 7.89 22.1831 8.55 21.7331L13 18.7731H17C20 18.7731 22 16.7731 22 13.7731V7.77307C22 4.77307 20 2.77307 17 2.77307ZM12 14.9431C11.58 14.9431 11.25 14.6031 11.25 14.1931C11.25 13.7831 11.58 13.4431 12 13.4431C12.42 13.4431 12.75 13.7831 12.75 14.1931C12.75 14.6031 12.42 14.9431 12 14.9431ZM13.26 10.7931C12.87 11.0531 12.75 11.2231 12.75 11.5031V11.7131C12.75 12.1231 12.41 12.4631 12 12.4631C11.59 12.4631 11.25 12.1231 11.25 11.7131V11.5031C11.25 10.3431 12.1 9.77307 12.42 9.55307C12.79 9.30307 12.91 9.13307 12.91 8.87307C12.91 8.37307 12.5 7.96307 12 7.96307C11.5 7.96307 11.09 8.37307 11.09 8.87307C11.09 9.28307 10.75 9.62307 10.34 9.62307C9.93 9.62307 9.59 9.28307 9.59 8.87307C9.59 7.54307 10.67 6.46307 12 6.46307C13.33 6.46307 14.41 7.54307 14.41 8.87307C14.41 10.0131 13.57 10.5831 13.26 10.7931Z" fill="#222222"/>
</svg>
