<svg width="121" height="76" viewBox="0 0 121 76" fill="none" xmlns="http://www.w3.org/2000/svg">
<g opacity="0.6">
<path d="M0.261219 50.7629C1.10836 61.8486 5.94544 72.1784 20.5613 74.6586C32.5938 76.7039 43.9465 70.8891 46.5455 61.3567C48.2659 55.0501 45.8395 48.0549 40.1605 43.022C33.7076 37.3005 17.2616 35.4365 21.0319 25.8523C25.6755 14.0572 29.9425 6.46646 56 10.7485C54.9855 9.63012 53.6991 8.40814 52.3134 7.51756C39.7788 -0.590942 24.7708 -3.5423 14.1188 6.18168C1.73587 17.4901 -0.920609 35.3899 0.250748 50.7732L0.261219 50.7629Z" fill="white"/>
<path d="M66.2565 50.7629C67.0886 61.8486 71.8393 72.1784 86.1941 74.6586C98.0118 76.7039 109.162 70.8891 111.714 61.3567C113.404 55.0501 111.021 48.0549 105.443 43.022C99.1057 37.3005 82.9533 35.4365 86.6563 25.8523C91.217 14.0572 95.4079 6.46646 121 10.7485C120.004 9.63012 118.74 8.40814 117.379 7.51756C105.068 -0.590942 90.3285 -3.5423 79.8667 6.18168C67.7049 17.4901 65.0958 35.3899 66.2463 50.7732L66.2565 50.7629Z" fill="white"/>
</g>
</svg>
