<svg width="21" height="22" viewBox="0 0 21 22" fill="none" xmlns="http://www.w3.org/2000/svg">
<path d="M10.3439 0.584961L12.8439 7.58496V15.9367L10.6794 14.8768L4.60069 19.2932L6.50208 12.585L0.343872 7.58496H7.84387L10.3439 0.584961Z" fill="#FFCF26"/>
<path d="M10.5018 2.10782L12.4982 7.85125L12.6125 8.1799L12.9603 8.18699L19.0396 8.31087L14.1942 11.9844L13.9169 12.1946L14.0177 12.5276L15.7785 18.3476L10.7874 14.8745L10.5018 14.6758L10.2162 14.8745L5.2252 18.3476L6.98597 12.5276L7.08672 12.1946L6.80947 11.9844L1.96406 8.31087L8.04332 8.18699L8.39118 8.1799L8.50541 7.85125L10.5018 2.10782Z" stroke="#FFCF26"/>
</svg>
