<svg width="24" height="25" viewBox="0 0 24 25" fill="none" xmlns="http://www.w3.org/2000/svg">
<path d="M3 6.5365C3 6.14202 3.32671 5.82222 3.72973 5.82222H8.51787C8.52437 4.98099 8.61554 3.82774 9.45037 3.02938C10.1074 2.40108 11.0081 2.0127 12 2.0127C12.9919 2.0127 13.8926 2.40108 14.5496 3.02938C15.3844 3.82774 15.4756 4.98099 15.4821 5.82222H20.2703C20.6733 5.82222 21 6.14202 21 6.5365C21 6.93099 20.6733 7.25079 20.2703 7.25079H3.72973C3.32671 7.25079 3 6.93099 3 6.5365Z" fill="#222222"/>
<path fill-rule="evenodd" clip-rule="evenodd" d="M11.5956 22.0127H12.4044C15.1871 22.0127 16.5785 22.0127 17.4831 21.1268C18.3878 20.2408 18.4803 18.7876 18.6654 15.8812L18.9321 11.6933C19.0326 10.1163 19.0828 9.32781 18.6289 8.82815C18.1751 8.32849 17.4087 8.32849 15.876 8.32849H8.12404C6.59127 8.32849 5.82488 8.32849 5.37105 8.82815C4.91722 9.32781 4.96744 10.1163 5.06788 11.6933L5.33459 15.8812C5.5197 18.7876 5.61225 20.2408 6.51689 21.1268C7.42153 22.0127 8.81289 22.0127 11.5956 22.0127ZM10.2463 12.2012C10.2051 11.7673 9.83753 11.4508 9.42537 11.4942C9.01321 11.5376 8.71251 11.9244 8.75372 12.3583L9.25372 17.6214C9.29494 18.0553 9.66247 18.3718 10.0746 18.3284C10.4868 18.2851 10.7875 17.8982 10.7463 17.4643L10.2463 12.2012ZM14.5746 11.4942C14.9868 11.5376 15.2875 11.9244 15.2463 12.3583L14.7463 17.6214C14.7051 18.0553 14.3375 18.3718 13.9254 18.3284C13.5132 18.2851 13.2125 17.8982 13.2537 17.4643L13.7537 12.2012C13.7949 11.7673 14.1625 11.4508 14.5746 11.4942Z" fill="#222222"/>
</svg>
