<svg xmlns="http://www.w3.org/2000/svg" width="24" height="25" viewBox="0 0 24 25" fill="none"><path fill-rule="evenodd" clip-rule="evenodd" d="M9.93055 0.159437C10.0309 0.153285 10.1369 0.153302 10.2731 0.153323H13.7274C13.8636 0.153302 13.9696 0.153285 14.0699 0.159437C15.3424 0.237481 16.4567 1.05081 16.9322 2.24865C16.9697 2.34305 17.0033 2.44496 17.0463 2.5758L17.0499 2.58682C17.15 2.85949 17.3795 3.16952 17.7008 3.41723C17.7365 3.4448 17.7724 3.47083 17.8083 3.49534C20.393 3.49839 21.7422 3.54672 22.6721 4.31295C22.8629 4.47013 23.0372 4.6467 23.1924 4.83988C24 5.84497 24 7.3337 24 10.3111C24 11.0667 24 11.4444 23.8191 11.7391C23.7838 11.7965 23.7439 11.8508 23.6997 11.9015C23.473 12.1617 23.1157 12.2702 22.4011 12.4873L16.8 14.1889V13.2168C16.8 11.8745 15.7255 10.7864 14.4 10.7864H9.6C8.27452 10.7864 7.2 11.8745 7.2 13.2168V14.1889L1.59889 12.4873C0.884282 12.2702 0.526981 12.1617 0.300255 11.9015C0.25609 11.8508 0.216177 11.7965 0.180932 11.7391C0 11.4444 0 11.0667 0 10.3111C0 7.3337 0 5.84497 0.807578 4.83988C0.962794 4.6467 1.13715 4.47013 1.32791 4.31295C2.25784 3.54672 3.60698 3.49839 6.19167 3.49534C6.22761 3.47082 6.26353 3.44477 6.29932 3.41719C6.62074 3.16944 6.85025 2.85939 6.95026 2.58678C6.99581 2.4484 7.02988 2.34517 7.0682 2.24864C7.54372 1.05081 8.65803 0.237481 9.93055 0.159437ZM15.3824 3.2741C15.4114 3.34892 15.4434 3.42263 15.4781 3.49514H8.52207C8.55671 3.42275 8.58864 3.34916 8.61762 3.27448L8.61948 3.27023L8.62448 3.25819L8.63033 3.24346L8.63583 3.22892L8.64019 3.21683L8.64233 3.21075L8.64742 3.19587L8.65201 3.18214L8.65452 3.17453L8.6578 3.16439L8.66049 3.15584L8.66263 3.14882C8.70923 3.0075 8.72445 2.96344 8.7383 2.92855C8.95444 2.38408 9.46095 2.01439 10.0394 1.97891C10.0781 1.97654 10.1255 1.97613 10.2976 1.97613H13.7029C13.8749 1.97613 13.9224 1.97654 13.9611 1.97891C14.5395 2.01439 15.046 2.38408 15.2621 2.92855C15.2758 2.96293 15.2903 3.00538 15.3375 3.14879L15.3396 3.15574L15.3423 3.16434L15.3456 3.17449L15.3481 3.18209L15.3527 3.19579L15.3578 3.21064L15.3599 3.21672L15.3643 3.22878L15.3698 3.24323L15.3756 3.25782L15.3805 3.2697L15.3824 3.2741ZM14.4 12.6091H9.6C9.26863 12.6091 9 12.8812 9 13.2167V15.8434C9 16.0918 9.14937 16.3153 9.37717 16.4075L10.2173 16.7478C11.3617 17.2114 12.6383 17.2114 13.7827 16.7478L14.6228 16.4075C14.8506 16.3153 15 16.0918 15 15.8434V13.2167C15 12.8812 14.7314 12.6091 14.4 12.6091ZM7.21292 16.0958L1.20703 14.2712C1.24314 18.056 1.46147 21.5416 2.7815 22.7298C4.36312 24.1535 6.90871 24.1535 11.9999 24.1535C17.091 24.1535 19.6366 24.1535 21.2183 22.7298C22.5383 21.5416 22.7566 18.056 22.7927 14.2713L16.7871 16.0958C16.6956 16.9862 16.1247 17.7625 15.2913 18.1001L14.4512 18.4404C12.8777 19.0778 11.1223 19.0778 9.54882 18.4404L8.70866 18.1001C7.87536 17.7625 7.30442 16.9862 7.21292 16.0958Z" fill="#222222"></path></svg>