<svg xmlns="http://www.w3.org/2000/svg" width="24" height="25" viewBox="0 0 24 25" fill="none"><path d="M16 6.72461C16 8.93375 14.2091 10.7246 12 10.7246C9.79086 10.7246 8 8.93375 8 6.72461C8 4.51547 9.79086 2.72461 12 2.72461C14.2091 2.72461 16 4.51547 16 6.72461Z" fill="#222222"></path><path d="M19 16.7246C19 18.9337 15.866 20.7246 12 20.7246C8.13401 20.7246 5 18.9337 5 16.7246C5 14.5155 8.13401 12.7246 12 12.7246C15.866 12.7246 19 14.5155 19 16.7246Z" fill="#222222"></path><path d="M6.44894 3.72461C6.63772 3.72461 6.82203 3.74453 7 3.78245C6.56643 4.61059 6.3191 5.56654 6.3191 6.58462C6.3191 7.5779 6.55453 8.51206 6.96866 9.32607C6.80042 9.35978 6.62667 9.37743 6.44894 9.37743C4.94425 9.37743 3.72447 8.11201 3.72447 6.55102C3.72447 4.99004 4.94425 3.72461 6.44894 3.72461Z" fill="#222222"></path><path d="M4.66734 19.7246C4.06318 18.948 3.65955 17.9949 3.65955 16.8807C3.65955 15.8004 4.03888 14.8718 4.6125 14.1084C2.58626 14.2774 1 15.4692 1 16.9143C1 18.3729 2.61414 19.5735 4.66734 19.7246Z" fill="#222222"></path><path d="M17.6809 6.58462C17.6809 7.57791 17.4455 8.51206 17.0313 9.32607C17.1996 9.35978 17.3733 9.37743 17.5511 9.37743C19.0557 9.37743 20.2755 8.11201 20.2755 6.55102C20.2755 4.99004 19.0557 3.72461 17.5511 3.72461C17.3623 3.72461 17.178 3.74453 17 3.78245C17.4336 4.61059 17.6809 5.56654 17.6809 6.58462Z" fill="#222222"></path><path d="M19.3327 19.7246C21.3859 19.5735 23 18.3729 23 16.9143C23 15.4692 21.4137 14.2774 19.3875 14.1084C19.9611 14.8718 20.3405 15.8004 20.3405 16.8807C20.3405 17.9949 19.9368 18.948 19.3327 19.7246Z" fill="#222222"></path></svg>