<svg xmlns="http://www.w3.org/2000/svg" width="20" height="21" viewBox="0 0 20 21" fill="none"><path fill-rule="evenodd" clip-rule="evenodd" d="M10 20.1284C5.28595 20.1284 2.92893 20.1284 1.46447 18.664C0 17.1995 0 14.8425 0 10.1284C0 5.41437 0 3.05735 1.46447 1.59288C2.92893 0.128418 5.28595 0.128418 10 0.128418C14.714 0.128418 17.0711 0.128418 18.5355 1.59288C20 3.05735 20 5.41437 20 10.1284C20 14.8425 20 17.1995 18.5355 18.664C17.0711 20.1284 14.714 20.1284 10 20.1284ZM10 5.87842C9.37868 5.87842 8.875 6.3821 8.875 7.00342C8.875 7.41763 8.53921 7.75342 8.125 7.75342C7.71079 7.75342 7.375 7.41763 7.375 7.00342C7.375 5.55367 8.55025 4.37842 10 4.37842C11.4497 4.37842 12.625 5.55367 12.625 7.00342C12.625 7.71426 12.3415 8.3604 11.883 8.83238C11.7907 8.92736 11.7027 9.01529 11.6187 9.09918C11.4029 9.31483 11.2138 9.50375 11.0479 9.71691C10.8289 9.99834 10.75 10.2052 10.75 10.3784V11.1284C10.75 11.5426 10.4142 11.8784 10 11.8784C9.58579 11.8784 9.25 11.5426 9.25 11.1284V10.3784C9.25 9.72323 9.55501 9.19286 9.86417 8.79563C10.0929 8.50171 10.3804 8.21476 10.6138 7.98188C10.6842 7.91163 10.7496 7.8463 10.807 7.78719C11.0046 7.58385 11.125 7.30846 11.125 7.00342C11.125 6.3821 10.6213 5.87842 10 5.87842ZM10 15.1284C10.5523 15.1284 11 14.6807 11 14.1284C11 13.5761 10.5523 13.1284 10 13.1284C9.44771 13.1284 9 13.5761 9 14.1284C9 14.6807 9.44771 15.1284 10 15.1284Z" fill="#222222"></path></svg>