<svg xmlns="http://www.w3.org/2000/svg" width="20" height="21" viewBox="0 0 20 21" fill="none"><path fill-rule="evenodd" clip-rule="evenodd" d="M0 10.0587V6.05872C0 3.23029 0 1.81608 0.878679 0.937396C1.75736 0.0587158 3.17157 0.0587158 6 0.0587158H14C16.8284 0.0587158 18.2426 0.0587158 19.1213 0.937395C20 1.81608 20 3.23029 20 6.05872V10.0587C20 12.8871 20 14.3014 19.1213 15.18C18.645 15.6564 18.0113 15.8745 17.0802 15.9744C17.0062 15.8744 16.9362 15.7958 16.8862 15.7408C16.7701 15.6131 16.6228 15.4679 16.48 15.3271L14.987 13.8549L14.4357 13.2964C14.0733 11.1738 12.2255 9.55872 10.0001 9.55872C7.77461 9.55872 5.9268 11.1738 5.56446 13.2964L5.01311 13.8549L3.5202 15.327C3.37739 15.4678 3.23008 15.6131 3.11392 15.7408C3.06395 15.7958 2.9939 15.8745 2.9199 15.9744C1.98877 15.8745 1.35503 15.6564 0.878679 15.18C0 14.3014 0 12.8871 0 10.0587ZM7 3.30872C6.58579 3.30872 6.25 3.6445 6.25 4.05872C6.25 4.47293 6.58579 4.80872 7 4.80872H13C13.4142 4.80872 13.75 4.47293 13.75 4.05872C13.75 3.6445 13.4142 3.30872 13 3.30872H7ZM4.25 7.55872C4.25 7.1445 4.58579 6.80872 5 6.80872H15C15.4142 6.80872 15.75 7.1445 15.75 7.55872C15.75 7.97293 15.4142 8.30872 15 8.30872H5C4.58579 8.30872 4.25 7.97293 4.25 7.55872Z" fill="#222222"></path><path d="M13 14.0587C13 15.7156 11.6569 17.0587 10 17.0587C8.34315 17.0587 7 15.7156 7 14.0587C7 12.4019 8.34315 11.0587 10 11.0587C11.6569 11.0587 13 12.4019 13 14.0587Z" fill="#222222"></path><path d="M7.00111 13.9761C7.00037 14.0036 7 14.0311 7 14.0587C7 15.7156 8.34315 17.0587 10 17.0587C11.6569 17.0587 13 15.7156 13 14.0587C13 14.0311 12.9996 14.0036 12.9989 13.9761C12.9551 12.3575 11.6292 11.0587 10 11.0587C8.4467 11.0587 7.16912 12.2392 7.01549 13.752C7.00798 13.8259 7.00315 13.9007 7.00111 13.9761Z" fill="#222222"></path><path d="M5.6757 15.3081L4.59523 16.3735C4.27116 16.6931 4.10913 16.8529 4.05306 16.9882C3.92529 17.2965 4.03463 17.6386 4.31283 17.8008C4.43492 17.872 4.65512 17.8941 5.09553 17.9385C5.3442 17.9635 5.46853 17.9761 5.57266 18.0141C5.80579 18.0992 5.98715 18.278 6.07345 18.5079C6.112 18.6106 6.1247 18.7332 6.1501 18.9784C6.19509 19.4127 6.21758 19.6298 6.28977 19.7502C6.45425 20.0246 6.80111 20.1324 7.1138 20.0064C7.25102 19.9511 7.41306 19.7913 7.73713 19.4718L8.81754 18.4018C7.30505 17.9909 6.10917 16.8111 5.6757 15.3081Z" fill="#222222"></path><path d="M11.1825 18.4018L12.2629 19.4718C12.5869 19.7913 12.749 19.9511 12.8862 20.0064C13.1989 20.1324 13.5457 20.0246 13.7102 19.7502C13.7824 19.6298 13.8049 19.4127 13.8499 18.9784C13.8753 18.7332 13.888 18.6106 13.9265 18.5079C14.0129 18.278 14.1942 18.0992 14.4273 18.0141C14.5315 17.9761 14.6558 17.9635 14.9045 17.9385C15.3449 17.8941 15.5651 17.872 15.6872 17.8008C15.9654 17.6386 16.0747 17.2965 15.9469 16.9882C15.8909 16.8529 15.7288 16.6931 15.4048 16.3735L14.3243 15.3081C13.8908 16.8111 12.6949 17.9909 11.1825 18.4018Z" fill="#222222"></path></svg>