<svg xmlns="http://www.w3.org/2000/svg" width="20" height="21" viewBox="0 0 20 21" fill="none"><path d="M6.50989 0.128425H13.49C13.7225 0.128367 13.9007 0.128323 14.0565 0.143565C15.1643 0.251933 16.0711 0.917998 16.4556 1.81519H3.54428C3.92879 0.917998 4.83555 0.251933 5.94337 0.143565C6.09917 0.128323 6.27741 0.128367 6.50989 0.128425Z" fill="#222222"></path><path d="M4.31052 2.85154C2.91989 2.85154 1.77963 3.69129 1.3991 4.80533C1.39117 4.82855 1.38356 4.8519 1.37629 4.87535C1.77444 4.75478 2.18881 4.67601 2.60827 4.62224C3.68865 4.48373 5.05399 4.4838 6.64002 4.48389L6.75846 4.48389L13.5321 4.48389C15.1181 4.4838 16.4835 4.48373 17.5639 4.62224C17.9833 4.67601 18.3977 4.75478 18.7958 4.87535C18.7886 4.85189 18.781 4.82855 18.773 4.80533C18.3925 3.69129 17.2522 2.85154 15.8616 2.85154H4.31052Z" fill="#222222"></path><path fill-rule="evenodd" clip-rule="evenodd" d="M6.67239 5.67046H13.3276C16.7024 5.67046 18.3898 5.67046 19.3377 6.65729C20.2855 7.64412 20.0625 9.16874 19.6165 12.218L19.1935 15.1096C18.8437 17.5008 18.6689 18.6964 17.7717 19.4124C16.8745 20.1284 15.5512 20.1284 12.9046 20.1284H7.09536C4.44881 20.1284 3.12553 20.1284 2.22834 19.4124C1.33115 18.6964 1.15626 17.5008 0.806481 15.1096L0.383511 12.218C-0.0625173 9.16874 -0.285531 7.64412 0.662318 6.65729C1.61017 5.67046 3.29758 5.67046 6.67239 5.67046ZM6 16.1286C6 15.7143 6.3731 15.3786 6.83333 15.3786H13.1667C13.6269 15.3786 14 15.7143 14 16.1286C14 16.5428 13.6269 16.8786 13.1667 16.8786H6.83333C6.3731 16.8786 6 16.5428 6 16.1286Z" fill="#222222"></path></svg>