<svg width="20" height="21" viewBox="0 0 20 21" fill="none" xmlns="http://www.w3.org/2000/svg">
<path d="M14 13.2995C14.6904 13.2995 15.25 12.7398 15.25 12.0495C15.25 11.3591 14.6904 10.7995 14 10.7995C13.3096 10.7995 12.75 11.3591 12.75 12.0495C12.75 12.7398 13.3096 13.2995 14 13.2995Z" fill="white"/>
<path d="M7.25 8.04947C7.25 7.35911 6.69036 6.79947 6 6.79947C5.30964 6.79947 4.75 7.35911 4.75 8.04947C4.75 8.73983 5.30964 9.29947 6 9.29947C6.69036 9.29947 7.25 8.73983 7.25 8.04947Z" fill="white"/>
<path fill-rule="evenodd" clip-rule="evenodd" d="M10 20.0495C5.28595 20.0495 2.92893 20.0495 1.46447 18.585C0 17.1205 0 14.7635 0 10.0495C0 5.33542 0 2.9784 1.46447 1.51393C2.92893 0.049469 5.28595 0.049469 10 0.049469C14.714 0.049469 17.0711 0.049469 18.5355 1.51393C20 2.9784 20 5.33542 20 10.0495C20 14.7635 20 17.1205 18.5355 18.585C17.0711 20.0495 14.714 20.0495 10 20.0495ZM16.75 12.0495C16.75 13.5683 15.5188 14.7995 14 14.7995C12.4812 14.7995 11.25 13.5683 11.25 12.0495C11.25 10.5307 12.4812 9.29947 14 9.29947C15.5188 9.29947 16.75 10.5307 16.75 12.0495ZM6 5.29947C7.51878 5.29947 8.75 6.53069 8.75 8.04947C8.75 9.56825 7.51878 10.7995 6 10.7995C4.48122 10.7995 3.25 9.56825 3.25 8.04947C3.25 6.53069 4.48122 5.29947 6 5.29947ZM14 8.79947C13.5858 8.79947 13.25 8.46368 13.25 8.04947V3.04947C13.25 2.63526 13.5858 2.29947 14 2.29947C14.4142 2.29947 14.75 2.63526 14.75 3.04947V8.04947C14.75 8.46368 14.4142 8.79947 14 8.79947ZM5.25 12.0495C5.25 11.6353 5.58579 11.2995 6 11.2995C6.41421 11.2995 6.75 11.6353 6.75 12.0495L6.75 17.0495C6.75 17.4637 6.41421 17.7995 6 17.7995C5.58579 17.7995 5.25 17.4637 5.25 17.0495L5.25 12.0495ZM14 17.7995C13.5858 17.7995 13.25 17.4637 13.25 17.0495V16.0495C13.25 15.6353 13.5858 15.2995 14 15.2995C14.4142 15.2995 14.75 15.6353 14.75 16.0495V17.0495C14.75 17.4637 14.4142 17.7995 14 17.7995ZM5.25 3.04947C5.25 2.63526 5.58579 2.29947 6 2.29947C6.41421 2.29947 6.75 2.63526 6.75 3.04947V4.04947C6.75 4.46368 6.41421 4.79947 6 4.79947C5.58579 4.79947 5.25 4.46368 5.25 4.04947V3.04947Z" fill="white"/>
</svg>
