<svg width="24" height="25" viewBox="0 0 24 25" fill="none" xmlns="http://www.w3.org/2000/svg">
<path fill-rule="evenodd" clip-rule="evenodd" d="M12 15.7627C12.4142 15.7627 12.75 15.4269 12.75 15.0127V4.04014L14.4306 6.00079C14.7001 6.31528 15.1736 6.3517 15.4881 6.08214C15.8026 5.81257 15.839 5.3391 15.5694 5.0246L12.5694 1.5246C12.427 1.35837 12.2189 1.2627 12 1.2627C11.7811 1.2627 11.573 1.35837 11.4306 1.5246L8.43056 5.0246C8.16099 5.3391 8.19741 5.81257 8.51191 6.08214C8.8264 6.3517 9.29988 6.31528 9.56944 6.00079L11.25 4.04014L11.25 15.0127C11.25 15.4269 11.5858 15.7627 12 15.7627Z" fill="#222222"/>
<path d="M16 9.0127C15.2978 9.0127 14.9467 9.0127 14.6945 9.18121C14.5853 9.25417 14.4915 9.34794 14.4186 9.45715C14.25 9.70937 14.25 10.0605 14.25 10.7627L14.25 15.0127C14.25 16.2553 13.2427 17.2627 12 17.2627C10.7574 17.2627 9.75004 16.2553 9.75004 15.0127L9.75004 10.7627C9.75004 10.0605 9.75004 9.70933 9.58149 9.4571C9.50854 9.34793 9.41481 9.25419 9.30564 9.18124C9.05341 9.0127 8.70227 9.0127 8 9.0127C5.17157 9.0127 3.75736 9.0127 2.87868 9.89137C2 10.7701 2 12.184 2 15.0125V16.0125C2 18.8409 2 20.2551 2.87868 21.1338C3.75736 22.0125 5.17157 22.0125 8 22.0125H16C18.8284 22.0125 20.2426 22.0125 21.1213 21.1338C22 20.2551 22 18.8409 22 16.0125V15.0125C22 12.184 22 10.7701 21.1213 9.89137C20.2426 9.01269 18.8284 9.0127 16 9.0127Z" fill="#222222"/>
</svg>
