<svg width="24" height="24" viewBox="0 0 24 24" fill="none" xmlns="http://www.w3.org/2000/svg">
<path d="M14.3498 2H9.64977C8.60977 2 7.75977 2.84 7.75977 3.88V4.82C7.75977 5.86 8.59977 6.7 9.63977 6.7H14.3498C15.3898 6.7 16.2298 5.86 16.2298 4.82V3.88C16.2398 2.84 15.3898 2 14.3498 2Z" fill="#222222"/>
<path d="M17.2391 4.81949C17.2391 6.40949 15.9391 7.70949 14.3491 7.70949H9.64906C8.05906 7.70949 6.75906 6.40949 6.75906 4.81949C6.75906 4.25949 6.15906 3.90949 5.65906 4.16949C4.24906 4.91949 3.28906 6.40949 3.28906 8.11949V17.5295C3.28906 19.9895 5.29906 21.9995 7.75906 21.9995H16.2391C18.6991 21.9995 20.7091 19.9895 20.7091 17.5295V8.11949C20.7091 6.40949 19.7491 4.91949 18.3391 4.16949C17.8391 3.90949 17.2391 4.25949 17.2391 4.81949Z" fill="#222222"/>
<path d="M15.3846 14.6516C15.563 14.83 15.7354 15.1684 15.7723 15.4146L15.9877 16.9282C15.9938 16.9835 16 17.0389 16 17.0943C16 17.3466 15.9138 17.5804 15.7477 17.7465C15.5446 17.9495 15.2492 18.0357 14.923 17.9865L13.409 17.7711C13.1567 17.7342 12.8243 17.5681 12.6458 17.3835L9.90097 14.6393C10.0302 14.5901 10.1595 14.5408 10.3072 14.4732C10.4364 14.4116 10.5718 14.3439 10.6949 14.2701C10.7995 14.2086 10.898 14.1409 10.9718 14.0855C11.0765 14.0178 11.1749 13.9379 11.2303 13.8886C11.2734 13.8579 11.3042 13.8333 11.3165 13.821C11.5011 13.6671 11.6734 13.4887 11.8027 13.3349C11.8458 13.2918 11.8704 13.2672 11.8765 13.2549C11.9504 13.1626 12.0242 13.0703 12.0796 12.9903C12.1535 12.8919 12.2212 12.7934 12.2766 12.6888C12.3504 12.5658 12.4181 12.4304 12.4858 12.295C12.5474 12.1535 12.6028 12.0243 12.6458 11.8951L15.3846 14.6516ZM11.4334 10.7014L12.0058 11.2675C12.0427 11.3044 12.0612 11.3536 12.0612 11.4029C12.0612 11.4213 12.0612 11.4459 12.055 11.4582C11.6981 12.7073 10.701 13.704 9.45169 14.0609C9.38399 14.0794 9.31014 14.0609 9.26706 14.0117L8.6947 13.4395C7.75923 12.5042 7.77769 11.6121 8.6947 10.6953C9.16243 10.2277 9.61171 10 10.0794 10C10.5226 10.0062 10.9657 10.2338 11.4334 10.7014Z" fill="white"/>
<path d="M16.5 19C13.1805 19 11.3195 19 8 19" stroke="white" stroke-linecap="round"/>
</svg>
